# xmcd
#
# Track frame offsets:
# 150
# 16500
# 29985
# 41285
# 62725
# 79220
# 94580
# 106852
# 123207
# 134022
# 153645
# 165934
# 178375
# 191452
# 205360
#
# Disc length: 3035 seconds
#
#
# Revision: 0
# Processed by: cddbd v1.5.1PL0 Copyright (c) Steve Scherf et al.
# Submitted via: FreeRIP 2.90 
#
DISCID=c50bd90f
DTITLE=Bluesberry - Josefina
DYEAR=2000
DGENRE=Blues
TTITLE0=To je muj udel
TTITLE1=Josefina
TTITLE2=Dam skotskou
TTITLE3=Noci jsou dlouhy
TTITLE4=Ty jses ke me zady
TTITLE5=Tva mama je dama
TTITLE6=Blues o Malostranske holce
TTITLE7=Vsechno je v haji
TTITLE8=Stary auto
TTITLE9=Venku bylo blato
TTITLE10=Zeleznicni most
TTITLE11=Jana
TTITLE12=Tak co s tim
TTITLE13=Byl to Bo Diddley
TTITLE14=Nezacinej
EXTD=
EXTT0=
EXTT1=
EXTT2=
EXTT3=
EXTT4=
EXTT5=
EXTT6=
EXTT7=
EXTT8=
EXTT9=
EXTT10=
EXTT11=
EXTT12=
EXTT13=
EXTT14=
PLAYORDER=
